<svg width="369" height="230" viewBox="0 0 369 230" fill="none" xmlns="http://www.w3.org/2000/svg">
<rect x="277.289" y="96.3907" width="6.55406" height="58.9866" transform="rotate(45 277.289 96.3907)" fill="#FFBD00"></rect>
<rect x="286.558" y="105.659" width="6.55406" height="58.9866" transform="rotate(45 286.558 105.659)" fill="#FF9400"></rect>
<rect x="295.827" y="114.928" width="6.55406" height="58.9866" transform="rotate(45 295.827 114.928)" fill="#FF6900"></rect>
<rect x="314.365" y="133.466" width="6.55406" height="58.9866" transform="rotate(45 314.365 133.466)" fill="#FF0000"></rect>
<rect x="305.096" y="124.197" width="6.55406" height="58.9866" transform="rotate(45 305.096 124.197)" fill="#FF3600"></rect>
<rect x="189.235" y="91.7557" width="6.55406" height="58.9866" transform="rotate(-45 189.235 91.7557)" fill="#FFBD00"></rect>
<rect x="198.505" y="82.4869" width="6.55406" height="58.9866" transform="rotate(-45 198.505 82.4869)" fill="#FF9400"></rect>
<rect x="207.773" y="73.2178" width="6.55406" height="58.9866" transform="rotate(-45 207.773 73.2178)" fill="#FF6900"></rect>
<rect x="226.311" y="54.6805" width="6.55406" height="58.9866" transform="rotate(-45 226.311 54.6805)" fill="#FF0000"></rect>
<rect x="217.043" y="63.9492" width="6.55406" height="58.9866" transform="rotate(-45 217.043 63.9492)" fill="#FF3600"></rect>
<rect x="184.399" y="96.1885" width="6.55406" height="58.9866" transform="rotate(45 184.399 96.1885)" fill="#FFBD00"></rect>
<rect x="193.666" y="105.457" width="6.55406" height="58.9866" transform="rotate(45 193.666 105.457)" fill="#FF9400"></rect>
<rect x="202.937" y="114.726" width="6.55406" height="58.9866" transform="rotate(45 202.937 114.726)" fill="#FF6900"></rect>
<rect x="221.473" y="133.264" width="6.55406" height="58.9866" transform="rotate(45 221.473 133.264)" fill="#FF0000"></rect>
<rect x="212.206" y="123.995" width="6.55406" height="58.9866" transform="rotate(45 212.206 123.995)" fill="#FF3600"></rect>
<rect x="96.5466" y="91.7552" width="6.55406" height="58.9866" transform="rotate(-45 96.5466 91.7552)" fill="#FFBD00"></rect>
<rect x="105.815" y="82.4865" width="6.55406" height="58.9866" transform="rotate(-45 105.815 82.4865)" fill="#FF9400"></rect>
<rect x="115.083" y="73.2177" width="6.55406" height="58.9866" transform="rotate(-45 115.083 73.2177)" fill="#FF6900"></rect>
<rect x="133.621" y="54.6798" width="6.55406" height="58.9866" transform="rotate(-45 133.621 54.6798)" fill="#FF0000"></rect>
<rect x="124.351" y="63.9489" width="6.55406" height="58.9866" transform="rotate(-45 124.351 63.9489)" fill="#FF3600"></rect>
<rect x="91.7107" y="96.1886" width="6.55406" height="58.9866" transform="rotate(45 91.7107 96.1886)" fill="#FFBD00"></rect>
<rect x="100.979" y="105.458" width="6.55406" height="58.9866" transform="rotate(45 100.979 105.458)" fill="#FF9400"></rect>
<rect x="110.247" y="114.726" width="6.55406" height="58.9866" transform="rotate(45 110.247 114.726)" fill="#FF6900"></rect>
<rect x="128.785" y="133.264" width="6.55406" height="58.9866" transform="rotate(45 128.785 133.264)" fill="#FF0000"></rect>
<rect x="119.518" y="123.995" width="6.55406" height="58.9866" transform="rotate(45 119.518 123.995)" fill="#FF3600"></rect>
</svg>